<?xml version="1.0" standalone="no"?>
<!DOCTYPE svg PUBLIC "-//W3C//DTD SVG 20010904//EN"
 "http://www.w3.org/TR/2001/REC-SVG-20010904/DTD/svg10.dtd">
<svg version="1.0" xmlns="http://www.w3.org/2000/svg"
 width="500.000000pt" height="500.000000pt" viewBox="0 0 500.000000 500.000000"
 preserveAspectRatio="xMidYMid meet">

<g transform="translate(0.000000,500.000000) scale(0.100000,-0.100000)"
fill="#000000" stroke="none">
<path d="M0 2500 l0 -2500 2500 0 2500 0 0 2500 0 2500 -2500 0 -2500 0 0
-2500z m4168 277 l2 -428 -52 3 -53 3 -3 373 -2 372 -370 0 -370 0 0 55 0 55
423 -2 422 -3 3 -428z m-2788 -47 l0 -51 -102 3 -103 3 -3 48 -3 47 105 0 106
0 0 -50z m510 -157 c0 -181 -3 -213 -19 -249 -67 -147 -332 -134 -390 19 -6
16 -11 98 -11 183 l0 154 55 0 55 0 0 -148 c0 -166 6 -184 65 -201 40 -11 88
0 116 25 17 16 19 35 19 221 l0 203 55 0 55 0 0 -207z m330 27 l125 -179 3
180 2 179 55 0 55 0 0 -280 0 -280 -54 0 -54 0 -124 177 -123 176 -5 -109 -5
-109 -52 -3 -53 -3 0 215 0 216 53 0 52 0 125 -180z m617 150 c61 -26 115 -81
134 -136 8 -22 14 -75 14 -120 0 -98 -28 -161 -93 -211 -57 -44 -98 -55 -224
-60 l-108 -5 0 116 0 116 55 0 55 0 0 -66 0 -65 48 7 c123 17 183 107 152 224
-20 74 -66 112 -153 125 l-47 7 0 -66 0 -66 -55 0 -55 0 0 116 0 117 113 -5
c88 -4 123 -10 164 -28z m513 -20 l0 -50 -80 0 -81 0 3 -62 3 -63 113 -3 112
-3 0 -49 0 -50 -115 0 -115 0 0 -60 0 -60 80 0 80 0 0 -55 0 -55 -135 0 -135
0 0 280 0 280 135 0 135 0 0 -50z m325 -97 c27 -79 53 -143 56 -143 4 0 22 43
40 95 l32 95 54 0 c29 0 53 -3 53 -7 0 -16 -173 -453 -180 -453 -4 0 -52 118
-108 263 -55 144 -104 270 -108 280 -6 16 -1 18 52 15 l58 -3 51 -142z m-2745
-358 l0 -375 375 0 375 0 0 -55 0 -55 -423 2 -422 3 -3 428 -2 427 50 0 50 0
0 -375z m448 181 c-3 -117 -6 -138 -24 -162 -40 -54 -70 -68 -150 -72 l-75 -4
3 53 3 54 55 3 c37 2 59 8 68 19 8 11 12 55 12 130 l0 113 56 0 56 0 -4 -134z"/>
</g>
</svg>
